<svg width="136" height="48" viewBox="0 0 136 48" fill="none" xmlns="http://www.w3.org/2000/svg">
<path d="M11.7421 14.808C11.7741 14.808 11.7901 14.84 11.7901 14.904C11.7901 14.968 11.7741 15 11.7421 15C11.3795 15 11.0861 14.9947 10.8621 14.984L9.69413 14.968L8.33413 14.984C8.14213 14.9947 7.88613 15 7.56613 15C7.53413 15 7.51813 14.968 7.51813 14.904C7.51813 14.84 7.53413 14.808 7.56613 14.808C7.97146 14.808 8.26479 14.7813 8.44613 14.728C8.62746 14.6747 8.75013 14.5733 8.81413 14.424C8.87813 14.2747 8.91013 14.0347 8.91013 13.704V10.008H3.42213V13.704C3.42213 14.024 3.45413 14.264 3.51813 14.424C3.58213 14.5733 3.70479 14.6747 3.88613 14.728C4.07813 14.7813 4.37679 14.808 4.78212 14.808C4.80346 14.808 4.81413 14.84 4.81413 14.904C4.81413 14.968 4.80346 15 4.78212 15C4.41946 15 4.13679 14.9947 3.93413 14.984L2.60613 14.968L1.43813 14.984C1.23546 14.9947 0.952792 15 0.590125 15C0.568792 15 0.558125 14.968 0.558125 14.904C0.558125 14.84 0.568792 14.808 0.590125 14.808C0.974125 14.808 1.25679 14.7813 1.43813 14.728C1.61946 14.6747 1.74213 14.5733 1.80613 14.424C1.87013 14.264 1.90213 14.024 1.90213 13.704V6.296C1.90213 5.976 1.87013 5.74133 1.80613 5.592C1.74213 5.44267 1.61946 5.34133 1.43813 5.288C1.25679 5.224 0.979458 5.192 0.606125 5.192C0.584792 5.192 0.574125 5.16 0.574125 5.096C0.574125 5.032 0.584792 5 0.606125 5L1.45413 5.016C1.94479 5.03733 2.32879 5.048 2.60613 5.048C2.97946 5.048 3.42213 5.03733 3.93413 5.016L4.78212 5C4.80346 5 4.81413 5.032 4.81413 5.096C4.81413 5.16 4.80346 5.192 4.78212 5.192C4.38746 5.192 4.09413 5.224 3.90213 5.288C3.72079 5.352 3.59279 5.464 3.51813 5.624C3.45413 5.77333 3.42213 6.008 3.42213 6.328V9.592H8.91013V6.328C8.91013 6.008 8.87813 5.77333 8.81413 5.624C8.75013 5.464 8.62213 5.352 8.43013 5.288C8.24879 5.224 7.96079 5.192 7.56613 5.192C7.53413 5.192 7.51813 5.16 7.51813 5.096C7.51813 5.032 7.53413 5 7.56613 5L8.33413 5.016C8.84613 5.03733 9.29946 5.048 9.69413 5.048C9.98213 5.048 10.3715 5.03733 10.8621 5.016L11.7421 5C11.7741 5 11.7901 5.032 11.7901 5.096C11.7901 5.16 11.7741 5.192 11.7421 5.192C11.3581 5.192 11.0755 5.224 10.8941 5.288C10.7235 5.34133 10.6061 5.44267 10.5421 5.592C10.4781 5.74133 10.4461 5.976 10.4461 6.296V13.704C10.4461 14.024 10.4781 14.264 10.5421 14.424C10.6061 14.5733 10.7235 14.6747 10.8941 14.728C11.0755 14.7813 11.3581 14.808 11.7421 14.808ZM16.0256 15.208C15.3856 15.208 14.8203 15.0587 14.3296 14.76C13.839 14.4507 13.4603 14.04 13.1936 13.528C12.927 13.0053 12.7936 12.44 12.7936 11.832C12.7936 11.1387 12.9643 10.552 13.3056 10.072C13.6576 9.58133 14.1003 9.21867 14.6336 8.984C15.1776 8.73867 15.7323 8.616 16.2976 8.616C16.9483 8.616 17.5136 8.77067 17.9936 9.08C18.4843 9.38933 18.8576 9.8 19.1136 10.312C19.3696 10.8133 19.4976 11.352 19.4976 11.928C19.4976 12.568 19.3376 13.1387 19.0176 13.64C18.7083 14.1413 18.287 14.5307 17.7536 14.808C17.2203 15.0747 16.6443 15.208 16.0256 15.208ZM16.5056 14.888C16.975 14.888 17.3323 14.68 17.5776 14.264C17.8336 13.848 17.9616 13.24 17.9616 12.44C17.9616 11.7253 17.8603 11.1013 17.6576 10.568C17.4656 10.0347 17.199 9.62933 16.8576 9.352C16.527 9.07467 16.1643 8.936 15.7696 8.936C15.2896 8.936 14.927 9.13333 14.6816 9.528C14.4363 9.92267 14.3136 10.504 14.3136 11.272C14.3136 11.9653 14.4043 12.5893 14.5856 13.144C14.7776 13.688 15.039 14.1147 15.3696 14.424C15.711 14.7333 16.0896 14.888 16.5056 14.888ZM20.6389 15C20.6069 15 20.5909 14.968 20.5909 14.904C20.5909 14.84 20.6069 14.808 20.6389 14.808C20.9909 14.808 21.2309 14.7333 21.3589 14.584C21.4869 14.424 21.5509 14.1307 21.5509 13.704V5.528C21.5509 5.15467 21.5135 4.888 21.4389 4.728C21.3749 4.55733 21.2522 4.472 21.0709 4.472C20.9109 4.472 20.6975 4.536 20.4309 4.664H20.4149C20.3722 4.664 20.3402 4.63733 20.3189 4.584C20.2975 4.53067 20.2975 4.49333 20.3189 4.472L22.5749 3.416L22.6389 3.4C22.6815 3.4 22.7295 3.42133 22.7829 3.464C22.8469 3.50667 22.8789 3.544 22.8789 3.576V13.704C22.8789 14.1413 22.9375 14.4347 23.0549 14.584C23.1722 14.7333 23.4122 14.808 23.7749 14.808C23.8069 14.808 23.8229 14.84 23.8229 14.904C23.8229 14.968 23.8069 15 23.7749 15C23.5189 15 23.3109 14.9947 23.1509 14.984L22.2069 14.968L21.2789 14.984C21.1189 14.9947 20.9055 15 20.6389 15ZM26.4573 6.984C26.1799 6.984 25.9613 6.90933 25.8013 6.76C25.6519 6.61067 25.5773 6.39733 25.5773 6.12C25.5773 5.85333 25.6519 5.65067 25.8013 5.512C25.9613 5.36267 26.1799 5.288 26.4573 5.288C26.7239 5.288 26.9319 5.36267 27.0813 5.512C27.2306 5.65067 27.3053 5.85333 27.3053 6.12C27.3053 6.39733 27.2306 6.61067 27.0813 6.76C26.9426 6.90933 26.7346 6.984 26.4573 6.984ZM24.9853 15C24.9533 15 24.9373 14.968 24.9373 14.904C24.9373 14.84 24.9533 14.808 24.9853 14.808C25.3479 14.808 25.5879 14.7333 25.7053 14.584C25.8226 14.4347 25.8813 14.1413 25.8813 13.704V10.792C25.8813 10.4293 25.8439 10.168 25.7693 10.008C25.6946 9.83733 25.5666 9.752 25.3853 9.752C25.2253 9.752 25.0173 9.816 24.7613 9.944H24.7453C24.7026 9.944 24.6706 9.91733 24.6493 9.864C24.6279 9.81067 24.6333 9.77333 24.6653 9.752L26.9693 8.68L27.0173 8.664C27.0599 8.664 27.1026 8.69067 27.1453 8.744C27.1986 8.78667 27.2253 8.824 27.2253 8.856V9.192C27.2039 9.64 27.1933 10.168 27.1933 10.776V13.704C27.1933 14.1413 27.2519 14.4347 27.3693 14.584C27.4973 14.7333 27.7426 14.808 28.1053 14.808C28.1373 14.808 28.1533 14.84 28.1533 14.904C28.1533 14.968 28.1373 15 28.1053 15C27.8386 15 27.6253 14.9947 27.4653 14.984L26.5373 14.968L25.6093 14.984C25.4599 14.9947 25.2519 15 24.9853 15ZM30.3233 9.656C30.3233 9.98667 30.4353 10.264 30.6593 10.488C30.8939 10.712 31.2299 10.9467 31.6673 11.192C32.0513 11.4053 32.3446 11.5813 32.5473 11.72C32.7606 11.8587 32.9419 12.0453 33.0913 12.28C33.2513 12.5147 33.3313 12.7973 33.3313 13.128C33.3313 13.4907 33.2406 13.8267 33.0593 14.136C32.8779 14.4453 32.6059 14.696 32.2433 14.888C31.8913 15.08 31.4699 15.176 30.9793 15.176C30.3926 15.176 29.8539 15.0267 29.3633 14.728C29.2993 14.664 29.2673 14.6 29.2673 14.536L29.2353 13.064C29.2353 13.032 29.2619 13.016 29.3153 13.016C29.3793 13.0053 29.4166 13.0107 29.4273 13.032C29.6086 13.5653 29.8806 14.0027 30.2433 14.344C30.6166 14.6853 31.0113 14.856 31.4273 14.856C31.6939 14.856 31.9019 14.7867 32.0513 14.648C32.2006 14.5093 32.2753 14.3013 32.2753 14.024C32.2753 13.6187 32.1579 13.2987 31.9233 13.064C31.6886 12.8187 31.3473 12.5787 30.8993 12.344C30.5366 12.152 30.2539 11.992 30.0513 11.864C29.8486 11.7253 29.6726 11.544 29.5233 11.32C29.3846 11.0853 29.3153 10.7973 29.3153 10.456C29.3153 9.848 29.5339 9.39467 29.9713 9.096C30.4193 8.79733 30.9579 8.648 31.5873 8.648C32.0033 8.648 32.4299 8.728 32.8673 8.888C32.9633 8.93067 33.0113 8.98933 33.0113 9.064C33.0113 9.30933 33.0059 9.50133 32.9953 9.64L32.9793 10.408C32.9793 10.44 32.9473 10.456 32.8833 10.456C32.8193 10.456 32.7873 10.44 32.7873 10.408C32.7873 10.1947 32.7019 9.976 32.5312 9.752C32.3606 9.51733 32.1419 9.32533 31.8753 9.176C31.6086 9.02667 31.3366 8.952 31.0593 8.952C30.5686 8.952 30.3233 9.18667 30.3233 9.656ZM39.0419 13.976C39.0739 13.976 39.1005 13.9973 39.1219 14.04C39.1539 14.0827 39.1539 14.1147 39.1219 14.136C38.7272 14.5093 38.3539 14.7813 38.0019 14.952C37.6499 15.112 37.2765 15.192 36.8819 15.192C36.4232 15.192 36.0339 15.0853 35.7139 14.872C35.4045 14.648 35.2499 14.28 35.2499 13.768V10.152C35.2499 9.8 35.1912 9.56533 35.0739 9.448C34.9672 9.33067 34.7539 9.272 34.4339 9.272C34.4232 9.272 34.4072 9.26133 34.3859 9.24C34.3752 9.208 34.3699 9.176 34.3699 9.144C34.3699 9.112 34.3752 9.08533 34.3859 9.064C34.4072 9.032 34.4232 9.016 34.4339 9.016C35.4365 8.97333 36.0659 8.54133 36.3219 7.72C36.3432 7.67733 36.3859 7.656 36.4499 7.656C36.5245 7.656 36.5619 7.67733 36.5619 7.72V8.984C37.0632 8.97333 37.7725 8.92 38.6899 8.824C38.7112 8.824 38.7325 8.86667 38.7539 8.952C38.7859 9.02667 38.8019 9.112 38.8019 9.208C38.8019 9.304 38.7805 9.4 38.7379 9.496C38.7059 9.592 38.6685 9.63467 38.6259 9.624C38.0285 9.48533 37.3405 9.4 36.5619 9.368V13.24C36.5619 13.656 36.6632 13.9653 36.8659 14.168C37.0792 14.36 37.3725 14.456 37.7459 14.456C38.1939 14.456 38.6152 14.3013 39.0099 13.992L39.0419 13.976ZM41.4885 6.984C41.2112 6.984 40.9925 6.90933 40.8325 6.76C40.6832 6.61067 40.6085 6.39733 40.6085 6.12C40.6085 5.85333 40.6832 5.65067 40.8325 5.512C40.9925 5.36267 41.2112 5.288 41.4885 5.288C41.7552 5.288 41.9632 5.36267 42.1125 5.512C42.2618 5.65067 42.3365 5.85333 42.3365 6.12C42.3365 6.39733 42.2618 6.61067 42.1125 6.76C41.9738 6.90933 41.7658 6.984 41.4885 6.984ZM40.0165 15C39.9845 15 39.9685 14.968 39.9685 14.904C39.9685 14.84 39.9845 14.808 40.0165 14.808C40.3792 14.808 40.6192 14.7333 40.7365 14.584C40.8538 14.4347 40.9125 14.1413 40.9125 13.704V10.792C40.9125 10.4293 40.8752 10.168 40.8005 10.008C40.7258 9.83733 40.5978 9.752 40.4165 9.752C40.2565 9.752 40.0485 9.816 39.7925 9.944H39.7765C39.7338 9.944 39.7018 9.91733 39.6805 9.864C39.6592 9.81067 39.6645 9.77333 39.6965 9.752L42.0005 8.68L42.0485 8.664C42.0912 8.664 42.1338 8.69067 42.1765 8.744C42.2298 8.78667 42.2565 8.824 42.2565 8.856V9.192C42.2352 9.64 42.2245 10.168 42.2245 10.776V13.704C42.2245 14.1413 42.2832 14.4347 42.4005 14.584C42.5285 14.7333 42.7738 14.808 43.1365 14.808C43.1685 14.808 43.1845 14.84 43.1845 14.904C43.1845 14.968 43.1685 15 43.1365 15C42.8698 15 42.6565 14.9947 42.4965 14.984L41.5685 14.968L40.6405 14.984C40.4912 14.9947 40.2832 15 40.0165 15ZM47.2905 15.192C46.5972 15.192 46.0052 15.0427 45.5145 14.744C45.0345 14.4347 44.6772 14.04 44.4425 13.56C44.2078 13.0693 44.0905 12.5573 44.0905 12.024C44.0905 11.352 44.2718 10.7653 44.6345 10.264C44.9972 9.752 45.4612 9.36267 46.0265 9.096C46.6025 8.81867 47.1838 8.68 47.7705 8.68C48.2718 8.68 48.7252 8.78133 49.1305 8.984C49.5358 9.18667 49.7385 9.45867 49.7385 9.8C49.7385 9.98133 49.6692 10.1413 49.5305 10.28C49.3918 10.408 49.1998 10.472 48.9545 10.472C48.5492 10.472 48.2558 10.232 48.0745 9.752C47.9678 9.48533 47.8558 9.29867 47.7385 9.192C47.6212 9.07467 47.4345 9.016 47.1785 9.016C46.6772 9.016 46.2772 9.24533 45.9785 9.704C45.6905 10.152 45.5465 10.7547 45.5465 11.512C45.5465 12.3973 45.7492 13.1173 46.1545 13.672C46.5705 14.216 47.2158 14.488 48.0905 14.488C48.3892 14.488 48.6558 14.4507 48.8905 14.376C49.1252 14.3013 49.3812 14.184 49.6585 14.024H49.6745C49.7065 14.024 49.7332 14.04 49.7545 14.072C49.7865 14.104 49.7918 14.1307 49.7705 14.152C49.3758 14.504 48.9865 14.7653 48.6025 14.936C48.2185 15.1067 47.7812 15.192 47.2905 15.192ZM59.6473 9.384C60.5219 9.48 61.2206 9.77333 61.7433 10.264C62.2659 10.7547 62.5273 11.3627 62.5273 12.088C62.5273 12.6427 62.3726 13.1493 62.0633 13.608C61.7646 14.056 61.3433 14.4133 60.7993 14.68C60.2659 14.936 59.6686 15.064 59.0073 15.064C58.6979 15.064 58.3406 15.048 57.9353 15.016C57.7966 15.0053 57.6206 14.9947 57.4073 14.984C57.1939 14.9733 56.9539 14.968 56.6873 14.968L55.5353 14.984C55.3326 14.9947 55.0553 15 54.7033 15C54.6713 15 54.6553 14.968 54.6553 14.904C54.6553 14.84 54.6713 14.808 54.7033 14.808C55.0446 14.808 55.3006 14.7813 55.4713 14.728C55.6419 14.664 55.7593 14.5573 55.8233 14.408C55.8979 14.2587 55.9353 14.024 55.9353 13.704V6.296C55.9353 5.98667 55.8979 5.75733 55.8233 5.608C55.7593 5.448 55.6419 5.34133 55.4713 5.288C55.3113 5.224 55.0606 5.192 54.7193 5.192C54.6979 5.192 54.6873 5.16 54.6873 5.096C54.6873 5.032 54.6979 5 54.7193 5L55.5513 5.016C56.0206 5.03733 56.3993 5.048 56.6873 5.048C56.9859 5.048 57.3006 5.032 57.6313 5C57.7486 4.98933 57.8873 4.97867 58.0473 4.968C58.2179 4.95733 58.4099 4.952 58.6233 4.952C59.5726 4.952 60.2979 5.13333 60.7993 5.496C61.3006 5.85867 61.5513 6.37067 61.5513 7.032C61.5513 7.544 61.3859 8.008 61.0553 8.424C60.7246 8.82933 60.2553 9.14933 59.6473 9.384ZM58.3513 5.272C58.0099 5.272 57.7753 5.34133 57.6473 5.48C57.5299 5.61867 57.4713 5.90133 57.4713 6.328V9.368L58.1432 9.384C58.7726 9.384 59.2473 9.18133 59.5673 8.776C59.8873 8.36 60.0473 7.82667 60.0473 7.176C60.0473 6.568 59.9033 6.09867 59.6153 5.768C59.3273 5.43733 58.9059 5.272 58.3513 5.272ZM58.7513 14.696C60.1913 14.696 60.9113 13.9547 60.9113 12.472C60.9113 11.6613 60.6979 11.0107 60.2713 10.52C59.8553 10.0293 59.2419 9.784 58.4313 9.784C58.0473 9.784 57.7273 9.79467 57.4713 9.816V13.704C57.4713 13.9493 57.5033 14.1413 57.5673 14.28C57.6313 14.4187 57.7539 14.5253 57.9353 14.6C58.1166 14.664 58.3886 14.696 58.7513 14.696ZM69.4234 13.992C69.4447 13.992 69.466 14.0133 69.4874 14.056C69.5194 14.0987 69.5247 14.1307 69.5034 14.152C69.1087 14.5147 68.714 14.7813 68.3194 14.952C67.9247 15.112 67.498 15.192 67.0394 15.192C66.3887 15.192 65.8234 15.048 65.3434 14.76C64.874 14.472 64.5114 14.0933 64.2554 13.624C64.01 13.1547 63.8874 12.648 63.8874 12.104C63.8874 11.4747 64.042 10.8987 64.3514 10.376C64.6607 9.85333 65.082 9.44267 65.6154 9.144C66.1594 8.83467 66.762 8.68 67.4234 8.68C68.0634 8.68 68.5594 8.83467 68.9114 9.144C69.2634 9.45333 69.4394 9.912 69.4394 10.52C69.4394 10.8293 69.3754 10.984 69.2474 10.984L65.3434 11C65.3327 11.096 65.3274 11.24 65.3274 11.432C65.3274 12.3707 65.5407 13.1173 65.9674 13.672C66.4047 14.216 67.0234 14.488 67.8234 14.488C68.122 14.488 68.3727 14.456 68.5754 14.392C68.778 14.3173 69.05 14.1893 69.3914 14.008L69.4234 13.992ZM66.8474 9C66.4527 9 66.1274 9.15467 65.8714 9.464C65.626 9.76267 65.4607 10.1787 65.3754 10.712L67.9354 10.664C67.914 9.55467 67.5514 9 66.8474 9ZM76.6411 14.136C76.6838 14.136 76.7105 14.1627 76.7211 14.216C76.7318 14.2587 76.7158 14.2907 76.6731 14.312L75.0251 15.096C74.9825 15.1173 74.9345 15.128 74.8811 15.128C74.7211 15.128 74.5665 15.0373 74.4171 14.856C74.2785 14.664 74.1878 14.4133 74.1451 14.104L73.4091 14.616C73.1531 14.7973 72.9185 14.9253 72.7051 15C72.5025 15.0747 72.2731 15.112 72.0171 15.112C71.5798 15.112 71.2438 15.0107 71.0091 14.808C70.7851 14.5947 70.6731 14.3173 70.6731 13.976C70.6731 13.688 70.7478 13.4533 70.8971 13.272C71.0571 13.0907 71.2545 12.9467 71.4891 12.84C71.7345 12.7227 72.0918 12.5787 72.5611 12.408L74.1131 11.832V10.872C74.1131 10.2107 74.0438 9.73067 73.9051 9.432C73.7771 9.12267 73.5691 8.968 73.2811 8.968C72.9291 8.968 72.6731 9.10133 72.5131 9.368C72.3638 9.624 72.2731 9.912 72.2411 10.232C72.1771 10.776 71.9051 11.048 71.4251 11.048C71.1905 11.048 71.0145 10.9947 70.8971 10.888C70.7905 10.7813 70.7371 10.648 70.7371 10.488C70.7371 10.1893 70.9131 9.90133 71.2651 9.624C71.6278 9.336 72.0598 9.10667 72.5611 8.936C73.0731 8.75467 73.5211 8.664 73.9051 8.664C74.3638 8.664 74.7265 8.808 74.9931 9.096C75.2705 9.384 75.4091 9.816 75.4091 10.392V13.272C75.4091 13.6027 75.4625 13.8533 75.5691 14.024C75.6758 14.1947 75.8305 14.28 76.0331 14.28C76.1931 14.28 76.3851 14.232 76.6091 14.136H76.6411ZM74.1131 13.848V13.688V12.104L73.1531 12.504C72.8758 12.6107 72.6465 12.7387 72.4651 12.888C72.2945 13.0267 72.2091 13.2293 72.2091 13.496C72.2091 13.752 72.2891 13.96 72.4491 14.12C72.6198 14.2693 72.8225 14.344 73.0571 14.344C73.2491 14.344 73.4518 14.28 73.6651 14.152L74.1131 13.848ZM84.5919 13.992C84.6239 13.992 84.6505 14.0187 84.6719 14.072C84.6932 14.1253 84.6879 14.1627 84.6559 14.184L82.5599 15.192L82.4959 15.208C82.3892 15.208 82.2932 15.0907 82.2079 14.856C82.1225 14.6107 82.0745 14.2853 82.0639 13.88C81.3172 14.744 80.5279 15.176 79.6959 15.176C79.1199 15.176 78.6719 15 78.3519 14.648C78.0319 14.2853 77.8719 13.7947 77.8719 13.176V10.792C77.8719 10.0667 77.7065 9.704 77.3759 9.704C77.2692 9.704 77.1199 9.74667 76.9279 9.832H76.9119C76.8692 9.832 76.8372 9.80533 76.8159 9.752C76.7945 9.69867 76.7999 9.66133 76.8319 9.64L78.8639 8.696L78.9279 8.68C78.9705 8.68 79.0185 8.70133 79.0719 8.744C79.1252 8.78667 79.1519 8.824 79.1519 8.856V12.488C79.1519 13.0853 79.2585 13.5333 79.4719 13.832C79.6959 14.12 80.0319 14.264 80.4799 14.264C80.7465 14.264 81.0185 14.2 81.2959 14.072C81.5839 13.944 81.8399 13.768 82.0639 13.544V10.792C82.0639 10.4187 82.0212 10.1467 81.9359 9.976C81.8612 9.79467 81.7385 9.704 81.5679 9.704C81.4719 9.704 81.3225 9.74667 81.1199 9.832H81.1039C81.0612 9.832 81.0292 9.80533 81.0079 9.752C80.9865 9.688 80.9972 9.65067 81.0399 9.64L83.0559 8.696C83.0772 8.68533 83.1039 8.68 83.1359 8.68C83.1785 8.68 83.2265 8.70133 83.2799 8.744C83.3332 8.78667 83.3599 8.824 83.3599 8.856V13.192C83.3599 13.5653 83.3972 13.8267 83.4719 13.976C83.5465 14.1253 83.6692 14.2 83.8399 14.2C83.9679 14.2 84.2079 14.136 84.5599 14.008L84.5919 13.992ZM89.8075 13.976C89.8395 13.976 89.8662 13.9973 89.8875 14.04C89.9195 14.0827 89.9195 14.1147 89.8875 14.136C89.4928 14.5093 89.1195 14.7813 88.7675 14.952C88.4155 15.112 88.0422 15.192 87.6475 15.192C87.1888 15.192 86.7995 15.0853 86.4795 14.872C86.1702 14.648 86.0155 14.28 86.0155 13.768V10.152C86.0155 9.8 85.9568 9.56533 85.8395 9.448C85.7328 9.33067 85.5195 9.272 85.1995 9.272C85.1888 9.272 85.1728 9.26133 85.1515 9.24C85.1408 9.208 85.1355 9.176 85.1355 9.144C85.1355 9.112 85.1408 9.08533 85.1515 9.064C85.1728 9.032 85.1888 9.016 85.1995 9.016C86.2022 8.97333 86.8315 8.54133 87.0875 7.72C87.1088 7.67733 87.1515 7.656 87.2155 7.656C87.2902 7.656 87.3275 7.67733 87.3275 7.72V8.984C87.8288 8.97333 88.5382 8.92 89.4555 8.824C89.4768 8.824 89.4982 8.86667 89.5195 8.952C89.5515 9.02667 89.5675 9.112 89.5675 9.208C89.5675 9.304 89.5462 9.4 89.5035 9.496C89.4715 9.592 89.4342 9.63467 89.3915 9.624C88.7942 9.48533 88.1062 9.4 87.3275 9.368V13.24C87.3275 13.656 87.4288 13.9653 87.6315 14.168C87.8448 14.36 88.1382 14.456 88.5115 14.456C88.9595 14.456 89.3808 14.3013 89.7755 13.992L89.8075 13.976ZM97.0861 8.824C97.1075 8.824 97.1181 8.856 97.1181 8.92C97.1181 8.984 97.1075 9.016 97.0861 9.016C96.7661 9.016 96.4888 9.144 96.2541 9.4C96.0301 9.656 95.8221 10.0453 95.6301 10.568L93.7901 15.448C93.4061 16.472 93.0381 17.2773 92.6861 17.864C92.3341 18.4507 91.9768 18.8667 91.6141 19.112C91.2515 19.368 90.8515 19.496 90.4141 19.496C90.1155 19.496 89.8861 19.432 89.7261 19.304C89.5555 19.1867 89.4701 19.0053 89.4701 18.76C89.4701 18.5467 89.5395 18.3813 89.6781 18.264C89.8061 18.1573 89.9661 18.104 90.1581 18.104C90.2861 18.104 90.3928 18.12 90.4781 18.152C90.5741 18.1947 90.6701 18.248 90.7661 18.312C90.8728 18.376 90.9635 18.424 91.0381 18.456C91.1235 18.488 91.2248 18.504 91.3421 18.504C91.5875 18.504 91.8115 18.4027 92.0141 18.2C92.2275 18.008 92.4461 17.6827 92.6701 17.224C92.9048 16.7653 93.1821 16.1147 93.5021 15.272L90.9741 10.152C90.7395 9.69333 90.5528 9.38933 90.4141 9.24C90.2861 9.09067 90.1261 9.016 89.9341 9.016C89.9021 9.016 89.8861 8.984 89.8861 8.92C89.8861 8.856 89.9021 8.824 89.9341 8.824C90.2115 8.824 90.4248 8.82933 90.5741 8.84L91.1981 8.856L92.2861 8.84C92.4461 8.82933 92.6648 8.824 92.9421 8.824C92.9741 8.824 92.9901 8.856 92.9901 8.92C92.9901 8.984 92.9741 9.016 92.9421 9.016C92.6541 9.016 92.4408 9.04267 92.3021 9.096C92.1741 9.13867 92.1101 9.224 92.1101 9.352C92.1101 9.448 92.1368 9.544 92.1901 9.64L94.1421 13.672L95.2141 10.568C95.3101 10.2907 95.3581 10.056 95.3581 9.864C95.3581 9.29867 95.0008 9.016 94.2861 9.016C94.2648 9.016 94.2541 8.984 94.2541 8.92C94.2541 8.856 94.2648 8.824 94.2861 8.824C94.5741 8.824 94.7928 8.82933 94.9421 8.84L95.9021 8.856L96.5261 8.84C96.6435 8.82933 96.8301 8.824 97.0861 8.824ZM103.327 6.696C103.327 7.09067 103.423 7.44267 103.615 7.752C103.818 8.05067 104.063 8.312 104.351 8.536C104.65 8.76 105.05 9.02667 105.551 9.336C106.095 9.67733 106.522 9.97067 106.831 10.216C107.151 10.4613 107.418 10.7653 107.631 11.128C107.855 11.48 107.967 11.896 107.967 12.376C107.967 12.92 107.823 13.4053 107.535 13.832C107.258 14.2587 106.858 14.5947 106.335 14.84C105.823 15.0747 105.236 15.192 104.575 15.192C104.127 15.192 103.663 15.1333 103.183 15.016C102.714 14.8987 102.356 14.7547 102.111 14.584C102.015 14.52 101.962 14.4187 101.951 14.28L101.855 11.848V11.832C101.855 11.7893 101.882 11.768 101.935 11.768C101.988 11.7573 102.02 11.7733 102.031 11.816C102.383 12.7013 102.783 13.4267 103.231 13.992C103.69 14.5573 104.271 14.84 104.975 14.84C105.434 14.84 105.818 14.7173 106.127 14.472C106.436 14.216 106.591 13.7947 106.591 13.208C106.591 12.7387 106.484 12.328 106.271 11.976C106.068 11.624 105.812 11.3307 105.503 11.096C105.204 10.8613 104.794 10.5733 104.271 10.232C103.759 9.90133 103.359 9.624 103.071 9.4C102.783 9.16533 102.538 8.88267 102.335 8.552C102.132 8.21067 102.031 7.816 102.031 7.368C102.031 6.81333 102.186 6.344 102.495 5.96C102.804 5.576 103.204 5.29333 103.695 5.112C104.196 4.92 104.719 4.824 105.263 4.824C105.626 4.824 105.988 4.86133 106.351 4.936C106.714 5 107.018 5.08533 107.263 5.192C107.423 5.256 107.503 5.35733 107.503 5.496L107.551 7.672C107.551 7.704 107.519 7.72533 107.455 7.736C107.402 7.74667 107.37 7.736 107.359 7.704C107.146 7.05333 106.858 6.46667 106.495 5.944C106.143 5.41067 105.61 5.144 104.895 5.144C104.415 5.144 104.031 5.28267 103.743 5.56C103.466 5.83733 103.327 6.216 103.327 6.696ZM115.501 14.136C115.543 14.136 115.57 14.1627 115.581 14.216C115.591 14.2587 115.575 14.2907 115.533 14.312L113.885 15.096C113.842 15.1173 113.794 15.128 113.741 15.128C113.581 15.128 113.426 15.0373 113.277 14.856C113.138 14.664 113.047 14.4133 113.005 14.104L112.269 14.616C112.013 14.7973 111.778 14.9253 111.565 15C111.362 15.0747 111.133 15.112 110.877 15.112C110.439 15.112 110.103 15.0107 109.868 14.808C109.645 14.5947 109.533 14.3173 109.533 13.976C109.533 13.688 109.607 13.4533 109.757 13.272C109.917 13.0907 110.114 12.9467 110.349 12.84C110.594 12.7227 110.951 12.5787 111.421 12.408L112.973 11.832V10.872C112.973 10.2107 112.903 9.73067 112.765 9.432C112.637 9.12267 112.429 8.968 112.141 8.968C111.789 8.968 111.533 9.10133 111.373 9.368C111.223 9.624 111.133 9.912 111.101 10.232C111.037 10.776 110.765 11.048 110.285 11.048C110.05 11.048 109.874 10.9947 109.757 10.888C109.65 10.7813 109.597 10.648 109.597 10.488C109.597 10.1893 109.773 9.90133 110.125 9.624C110.487 9.336 110.919 9.10667 111.421 8.936C111.933 8.75467 112.381 8.664 112.765 8.664C113.223 8.664 113.586 8.808 113.853 9.096C114.13 9.384 114.269 9.816 114.269 10.392V13.272C114.269 13.6027 114.322 13.8533 114.429 14.024C114.535 14.1947 114.69 14.28 114.893 14.28C115.053 14.28 115.245 14.232 115.469 14.136H115.501ZM112.973 13.848V13.688V12.104L112.013 12.504C111.735 12.6107 111.506 12.7387 111.325 12.888C111.154 13.0267 111.069 13.2293 111.069 13.496C111.069 13.752 111.149 13.96 111.309 14.12C111.479 14.2693 111.682 14.344 111.917 14.344C112.109 14.344 112.311 14.28 112.525 14.152L112.973 13.848ZM116.123 15C116.091 15 116.075 14.968 116.075 14.904C116.075 14.84 116.091 14.808 116.123 14.808C116.475 14.808 116.715 14.7333 116.843 14.584C116.971 14.424 117.035 14.1307 117.035 13.704V5.528C117.035 5.15467 116.998 4.888 116.923 4.728C116.859 4.55733 116.737 4.472 116.555 4.472C116.395 4.472 116.182 4.536 115.915 4.664H115.899C115.857 4.664 115.825 4.63733 115.803 4.584C115.782 4.53067 115.782 4.49333 115.803 4.472L118.059 3.416L118.123 3.4C118.166 3.4 118.214 3.42133 118.267 3.464C118.331 3.50667 118.363 3.544 118.363 3.576V13.704C118.363 14.1413 118.422 14.4347 118.539 14.584C118.657 14.7333 118.897 14.808 119.259 14.808C119.291 14.808 119.307 14.84 119.307 14.904C119.307 14.968 119.291 15 119.259 15C119.003 15 118.795 14.9947 118.635 14.984L117.691 14.968L116.763 14.984C116.603 14.9947 116.39 15 116.123 15ZM123.526 15.208C122.886 15.208 122.32 15.0587 121.83 14.76C121.339 14.4507 120.96 14.04 120.694 13.528C120.427 13.0053 120.294 12.44 120.294 11.832C120.294 11.1387 120.464 10.552 120.806 10.072C121.158 9.58133 121.6 9.21867 122.134 8.984C122.678 8.73867 123.232 8.616 123.798 8.616C124.448 8.616 125.014 8.77067 125.494 9.08C125.984 9.38933 126.358 9.8 126.614 10.312C126.87 10.8133 126.998 11.352 126.998 11.928C126.998 12.568 126.838 13.1387 126.518 13.64C126.208 14.1413 125.787 14.5307 125.254 14.808C124.72 15.0747 124.144 15.208 123.526 15.208ZM124.006 14.888C124.475 14.888 124.832 14.68 125.078 14.264C125.334 13.848 125.462 13.24 125.462 12.44C125.462 11.7253 125.36 11.1013 125.158 10.568C124.966 10.0347 124.699 9.62933 124.358 9.352C124.027 9.07467 123.664 8.936 123.27 8.936C122.79 8.936 122.427 9.13333 122.182 9.528C121.936 9.92267 121.814 10.504 121.814 11.272C121.814 11.9653 121.904 12.5893 122.086 13.144C122.278 13.688 122.539 14.1147 122.87 14.424C123.211 14.7333 123.59 14.888 124.006 14.888ZM135.611 14.808C135.643 14.808 135.659 14.84 135.659 14.904C135.659 14.968 135.643 15 135.611 15C135.344 15 135.136 14.9947 134.987 14.984L134.059 14.968L133.147 14.984C132.987 14.9947 132.774 15 132.507 15C132.475 15 132.459 14.968 132.459 14.904C132.459 14.84 132.475 14.808 132.507 14.808C132.87 14.808 133.11 14.7333 133.227 14.584C133.344 14.4347 133.403 14.1413 133.403 13.704V11.304C133.403 10.7067 133.291 10.2693 133.067 9.992C132.854 9.704 132.512 9.56 132.043 9.56C131.766 9.56 131.483 9.624 131.195 9.752C130.907 9.88 130.646 10.0507 130.411 10.264V13.704C130.411 14.1413 130.47 14.4347 130.587 14.584C130.704 14.7333 130.944 14.808 131.307 14.808C131.339 14.808 131.355 14.84 131.355 14.904C131.355 14.968 131.339 15 131.307 15C131.04 15 130.832 14.9947 130.683 14.984L129.755 14.968L128.827 14.984C128.678 14.9947 128.47 15 128.203 15C128.171 15 128.155 14.968 128.155 14.904C128.155 14.84 128.171 14.808 128.203 14.808C128.566 14.808 128.806 14.7333 128.923 14.584C129.04 14.4347 129.099 14.1413 129.099 13.704V10.648C129.099 10.3067 129.056 10.056 128.971 9.896C128.896 9.736 128.768 9.656 128.587 9.656C128.427 9.656 128.16 9.736 127.787 9.896H127.771C127.728 9.896 127.696 9.86933 127.675 9.816C127.654 9.76267 127.659 9.73067 127.691 9.72L129.787 8.696C129.851 8.67467 129.888 8.664 129.899 8.664C130.006 8.664 130.112 8.78667 130.219 9.032C130.336 9.26667 130.4 9.576 130.411 9.96C131.158 9.07467 131.968 8.632 132.843 8.632C133.43 8.632 133.888 8.81333 134.219 9.176C134.55 9.528 134.715 10.008 134.715 10.616V13.704C134.715 14.1413 134.774 14.4347 134.891 14.584C135.008 14.7333 135.248 14.808 135.611 14.808Z" fill="#3B835C"/>
<path d="M26.3724 41C26.3244 41 26.3004 40.952 26.3004 40.856C26.3004 40.76 26.3244 40.712 26.3724 40.712C26.9004 40.712 27.2604 40.6 27.4524 40.376C27.6444 40.136 27.7404 39.696 27.7404 39.056V26.792C27.7404 26.232 27.6844 25.832 27.5724 25.592C27.4764 25.336 27.2924 25.208 27.0204 25.208C26.7804 25.208 26.4604 25.304 26.0604 25.496H26.0364C25.9724 25.496 25.9244 25.456 25.8924 25.376C25.8604 25.296 25.8604 25.24 25.8924 25.208L29.2764 23.624L29.3724 23.6C29.4364 23.6 29.5084 23.632 29.5884 23.696C29.6844 23.76 29.7324 23.816 29.7324 23.864V39.056C29.7324 39.712 29.8204 40.152 29.9964 40.376C30.1724 40.6 30.5324 40.712 31.0764 40.712C31.1244 40.712 31.1484 40.76 31.1484 40.856C31.1484 40.952 31.1244 41 31.0764 41C30.6924 41 30.3804 40.992 30.1404 40.976L28.7244 40.952L27.3324 40.976C27.0924 40.992 26.7724 41 26.3724 41ZM40.9319 39.488C40.9639 39.488 40.9959 39.52 41.0279 39.584C41.0759 39.648 41.0839 39.696 41.0519 39.728C40.4599 40.272 39.8679 40.672 39.2759 40.928C38.6839 41.168 38.0439 41.288 37.3559 41.288C36.3799 41.288 35.5319 41.072 34.8119 40.64C34.1079 40.208 33.5639 39.64 33.1799 38.936C32.8119 38.232 32.6279 37.472 32.6279 36.656C32.6279 35.712 32.8599 34.848 33.3239 34.064C33.7879 33.28 34.4199 32.664 35.2199 32.216C36.0359 31.752 36.9399 31.52 37.9319 31.52C38.8919 31.52 39.6359 31.752 40.1639 32.216C40.6919 32.68 40.9559 33.368 40.9559 34.28C40.9559 34.744 40.8599 34.976 40.6679 34.976L34.8119 35C34.7959 35.144 34.7879 35.36 34.7879 35.648C34.7879 37.056 35.1079 38.176 35.7479 39.008C36.4039 39.824 37.3319 40.232 38.5319 40.232C38.9799 40.232 39.3559 40.184 39.6599 40.088C39.9639 39.976 40.3719 39.784 40.8839 39.512L40.9319 39.488ZM37.0679 32C36.4759 32 35.9879 32.232 35.6039 32.696C35.2359 33.144 34.9879 33.768 34.8599 34.568L38.6999 34.496C38.6679 32.832 38.1239 32 37.0679 32ZM67.2459 40.712C67.2779 40.712 67.2939 40.76 67.2939 40.856C67.2939 40.952 67.2779 41 67.2459 41C66.7179 41 66.2939 40.992 65.9739 40.976L64.2459 40.952L62.5659 40.976C62.2779 40.992 61.8699 41 61.3419 41C61.3099 41 61.2939 40.952 61.2939 40.856C61.2939 40.76 61.3099 40.712 61.3419 40.712C62.0459 40.712 62.5179 40.632 62.7579 40.472C62.9979 40.312 63.1179 39.976 63.1179 39.464L63.0939 39.056L62.6139 28.88L57.5019 40.832C57.4699 40.896 57.4059 40.928 57.3099 40.928C57.2299 40.928 57.1579 40.896 57.0939 40.832L51.0939 28.976L50.8779 38.096C50.8619 38.944 51.0219 39.592 51.3579 40.04C51.7099 40.488 52.2299 40.712 52.9179 40.712C52.9659 40.712 52.9899 40.76 52.9899 40.856C52.9899 40.952 52.9659 41 52.9179 41C52.4859 41 52.1499 40.992 51.9099 40.976L50.5899 40.952L49.1739 40.976C48.9339 40.992 48.5979 41 48.1659 41C48.1179 41 48.0939 40.952 48.0939 40.856C48.0939 40.76 48.1179 40.712 48.1659 40.712C48.8219 40.712 49.3259 40.488 49.6779 40.04C50.0459 39.592 50.2379 38.944 50.2539 38.096L50.4699 27.776C50.1819 27.264 49.8619 26.888 49.5099 26.648C49.1739 26.408 48.7819 26.288 48.3339 26.288C48.2859 26.288 48.2619 26.24 48.2619 26.144C48.2619 26.048 48.2859 26 48.3339 26L49.3659 26.024C49.5739 26.04 49.8459 26.048 50.1819 26.048L51.3099 26.024C51.4379 26.008 51.5979 26 51.7899 26C51.9979 26 52.1659 26.08 52.2939 26.24C52.4219 26.384 52.6219 26.72 52.8939 27.248L58.1739 37.544L62.9499 26.6C63.0459 26.376 63.1499 26.224 63.2619 26.144C63.3739 26.048 63.5099 26 63.6699 26C63.7819 26 63.9259 26.008 64.1019 26.024C64.2779 26.04 64.4939 26.048 64.7499 26.048L66.0459 26.024C66.2539 26.008 66.5659 26 66.9819 26C67.0139 26 67.0299 26.048 67.0299 26.144C67.0299 26.24 67.0139 26.288 66.9819 26.288C66.2139 26.288 65.6539 26.432 65.3019 26.72C64.9659 26.992 64.8139 27.448 64.8459 28.088L65.3739 39.056C65.4059 39.552 65.4699 39.912 65.5659 40.136C65.6619 40.36 65.8299 40.512 66.0699 40.592C66.3099 40.672 66.7019 40.712 67.2459 40.712ZM71.0765 28.976C70.6605 28.976 70.3325 28.864 70.0925 28.64C69.8685 28.416 69.7565 28.096 69.7565 27.68C69.7565 27.28 69.8685 26.976 70.0925 26.768C70.3325 26.544 70.6605 26.432 71.0765 26.432C71.4765 26.432 71.7885 26.544 72.0125 26.768C72.2365 26.976 72.3485 27.28 72.3485 27.68C72.3485 28.096 72.2365 28.416 72.0125 28.64C71.8045 28.864 71.4925 28.976 71.0765 28.976ZM68.8685 41C68.8205 41 68.7965 40.952 68.7965 40.856C68.7965 40.76 68.8205 40.712 68.8685 40.712C69.4125 40.712 69.7725 40.6 69.9485 40.376C70.1245 40.152 70.2125 39.712 70.2125 39.056V34.688C70.2125 34.144 70.1565 33.752 70.0445 33.512C69.9325 33.256 69.7405 33.128 69.4685 33.128C69.2285 33.128 68.9165 33.224 68.5325 33.416H68.5085C68.4445 33.416 68.3965 33.376 68.3645 33.296C68.3325 33.216 68.3405 33.16 68.3885 33.128L71.8445 31.52L71.9165 31.496C71.9805 31.496 72.0445 31.536 72.1085 31.616C72.1885 31.68 72.2285 31.736 72.2285 31.784V32.288C72.1965 32.96 72.1805 33.752 72.1805 34.664V39.056C72.1805 39.712 72.2685 40.152 72.4445 40.376C72.6365 40.6 73.0045 40.712 73.5485 40.712C73.5965 40.712 73.6205 40.76 73.6205 40.856C73.6205 40.952 73.5965 41 73.5485 41C73.1485 41 72.8285 40.992 72.5885 40.976L71.1965 40.952L69.8045 40.976C69.5805 40.992 69.2685 41 68.8685 41ZM77.4515 28.976C77.0355 28.976 76.7075 28.864 76.4675 28.64C76.2435 28.416 76.1315 28.096 76.1315 27.68C76.1315 27.28 76.2435 26.976 76.4675 26.768C76.7075 26.544 77.0355 26.432 77.4515 26.432C77.8515 26.432 78.1635 26.544 78.3875 26.768C78.6115 26.976 78.7235 27.28 78.7235 27.68C78.7235 28.096 78.6115 28.416 78.3875 28.64C78.1795 28.864 77.8675 28.976 77.4515 28.976ZM75.2435 41C75.1955 41 75.1715 40.952 75.1715 40.856C75.1715 40.76 75.1955 40.712 75.2435 40.712C75.7875 40.712 76.1475 40.6 76.3235 40.376C76.4995 40.152 76.5875 39.712 76.5875 39.056V34.688C76.5875 34.144 76.5315 33.752 76.4195 33.512C76.3075 33.256 76.1155 33.128 75.8435 33.128C75.6035 33.128 75.2915 33.224 74.9075 33.416H74.8835C74.8195 33.416 74.7715 33.376 74.7395 33.296C74.7075 33.216 74.7155 33.16 74.7635 33.128L78.2195 31.52L78.2915 31.496C78.3555 31.496 78.4195 31.536 78.4835 31.616C78.5635 31.68 78.6035 31.736 78.6035 31.784V32.288C78.5715 32.96 78.5555 33.752 78.5555 34.664V39.056C78.5555 39.712 78.6435 40.152 78.8195 40.376C79.0115 40.6 79.3795 40.712 79.9235 40.712C79.9715 40.712 79.9955 40.76 79.9955 40.856C79.9955 40.952 79.9715 41 79.9235 41C79.5235 41 79.2035 40.992 78.9635 40.976L77.5715 40.952L76.1795 40.976C75.9555 40.992 75.6435 41 75.2435 41ZM83.7065 28.976C83.2905 28.976 82.9625 28.864 82.7225 28.64C82.4985 28.416 82.3865 28.096 82.3865 27.68C82.3865 27.28 82.4985 26.976 82.7225 26.768C82.9625 26.544 83.2905 26.432 83.7065 26.432C84.1065 26.432 84.4185 26.544 84.6425 26.768C84.8665 26.976 84.9785 27.28 84.9785 27.68C84.9785 28.096 84.8665 28.416 84.6425 28.64C84.4345 28.864 84.1225 28.976 83.7065 28.976ZM84.9065 32.288C84.8745 32.96 84.8585 33.752 84.8585 34.664V42.152C84.8585 43.24 84.7305 44.128 84.4745 44.816C84.2345 45.52 83.8265 46.104 83.2505 46.568C82.6905 47.032 81.8985 47.432 80.8745 47.768C80.8425 47.784 80.8025 47.744 80.7545 47.648C80.7225 47.568 80.7305 47.52 80.7785 47.504C81.5465 47.168 82.0905 46.632 82.4105 45.896C82.7305 45.16 82.8905 44.096 82.8905 42.704V34.688C82.8905 34.128 82.8345 33.728 82.7225 33.488C82.6265 33.248 82.4505 33.128 82.1945 33.128C81.9385 33.128 81.6185 33.224 81.2345 33.416H81.2105C81.1465 33.416 81.0905 33.376 81.0425 33.296C81.0105 33.216 81.0185 33.16 81.0665 33.128L84.5225 31.52L84.5945 31.496C84.6585 31.496 84.7225 31.536 84.7865 31.616C84.8665 31.68 84.9065 31.736 84.9065 31.784V32.288ZM92.4603 41.312C91.5003 41.312 90.6523 41.088 89.9163 40.64C89.1803 40.176 88.6123 39.56 88.2123 38.792C87.8123 38.008 87.6123 37.16 87.6123 36.248C87.6123 35.208 87.8683 34.328 88.3803 33.608C88.9083 32.872 89.5723 32.328 90.3723 31.976C91.1883 31.608 92.0203 31.424 92.8683 31.424C93.8443 31.424 94.6923 31.656 95.4123 32.12C96.1483 32.584 96.7083 33.2 97.0923 33.968C97.4763 34.72 97.6683 35.528 97.6683 36.392C97.6683 37.352 97.4283 38.208 96.9483 38.96C96.4843 39.712 95.8523 40.296 95.0523 40.712C94.2523 41.112 93.3883 41.312 92.4603 41.312ZM93.1803 40.832C93.8843 40.832 94.4203 40.52 94.7883 39.896C95.1723 39.272 95.3643 38.36 95.3643 37.16C95.3643 36.088 95.2123 35.152 94.9083 34.352C94.6203 33.552 94.2203 32.944 93.7083 32.528C93.2123 32.112 92.6683 31.904 92.0763 31.904C91.3563 31.904 90.8123 32.2 90.4443 32.792C90.0763 33.384 89.8923 34.256 89.8923 35.408C89.8923 36.448 90.0283 37.384 90.3003 38.216C90.5883 39.032 90.9803 39.672 91.4763 40.136C91.9883 40.6 92.5563 40.832 93.1803 40.832ZM110.372 39.488C110.42 39.488 110.46 39.528 110.492 39.608C110.524 39.688 110.516 39.744 110.468 39.776L107.324 41.288L107.228 41.312C107.068 41.312 106.924 41.136 106.796 40.784C106.668 40.416 106.596 39.928 106.58 39.32C105.46 40.616 104.276 41.264 103.028 41.264C102.164 41.264 101.492 41 101.012 40.472C100.532 39.928 100.292 39.192 100.292 38.264V34.688C100.292 33.6 100.044 33.056 99.5482 33.056C99.3882 33.056 99.1642 33.12 98.8762 33.248H98.8522C98.7882 33.248 98.7402 33.208 98.7082 33.128C98.6762 33.048 98.6842 32.992 98.7322 32.96L101.78 31.544L101.876 31.52C101.94 31.52 102.012 31.552 102.092 31.616C102.172 31.68 102.212 31.736 102.212 31.784V37.232C102.212 38.128 102.372 38.8 102.692 39.248C103.028 39.68 103.532 39.896 104.204 39.896C104.604 39.896 105.012 39.8 105.428 39.608C105.86 39.416 106.244 39.152 106.58 38.816V34.688C106.58 34.128 106.516 33.72 106.388 33.464C106.276 33.192 106.092 33.056 105.836 33.056C105.692 33.056 105.468 33.12 105.164 33.248H105.14C105.076 33.248 105.028 33.208 104.996 33.128C104.964 33.032 104.98 32.976 105.044 32.96L108.068 31.544C108.1 31.528 108.14 31.52 108.188 31.52C108.252 31.52 108.324 31.552 108.404 31.616C108.484 31.68 108.524 31.736 108.524 31.784V38.288C108.524 38.848 108.58 39.24 108.692 39.464C108.804 39.688 108.988 39.8 109.244 39.8C109.436 39.8 109.796 39.704 110.324 39.512L110.372 39.488Z" fill="#3B835C"/>
</svg>
